# xmcd
#
# Track frame offsets:
#	150
#	21190
#	37662
#	60705
#	81522
#	103697
#	125455
#	146487
#	163617
#	181562
#	204970
#	221967
#
# Disc length: 3334 seconds
#
# Revision: 2
# Processed by: cddbd v1.5.1PL0 Copyright (c) Steve Scherf et al.
# Submitted via: dBpowerAMP V4.0
#
DISCID=a00d040c
DTITLE=Muddy Waters - Live (At Mr. Kelly's)
DYEAR=1900
DGENRE=blues
TTITLE0=What Is That She Got
TTITLE1=You Don't Have To Go
TTITLE2=Strange Woman
TTITLE3=Blow Wind blow
TTITLE4=Country Boy
TTITLE5=Nine Below Zero
TTITLE6=Stormy Monday Blues
TTITLE7=Mudcat
TTITLE8=Boom, Boom
TTITLE9=She's Nineteen Years Old
TTITLE10=C.C. Woman
TTITLE11=Long Distance Call
EXTD=
EXTT0=
EXTT1=
EXTT2=
EXTT3=
EXTT4=
EXTT5=
EXTT6=
EXTT7=
EXTT8=
EXTT9=
EXTT10=
EXTT11=
PLAYORDER=
